<?xml version="1.0" encoding="UTF-8"?>
<!DOCTYPE svg PUBLIC "-//W3C//DTD SVG 1.1//EN" "http://www.w3.org/Graphics/SVG/1.1/DTD/svg11.dtd">
<!-- Creator: CorelDRAW 2017 -->
<svg xmlns="http://www.w3.org/2000/svg" xml:space="preserve" width="9.0592mm" height="4.4872mm" version="1.1" style="shape-rendering:geometricPrecision; text-rendering:geometricPrecision; image-rendering:optimizeQuality; fill-rule:evenodd; clip-rule:evenodd"
viewBox="0 0 905.92 448.72"
 xmlns:xlink="http://www.w3.org/1999/xlink">
 <defs>
  <style type="text/css">
   <![CDATA[
    .fil0 {fill:#FEFEFE}
   ]]>
  </style>
 </defs>
 <g id="Capa_x0020_1">
  <metadata id="CorelCorpID_0Corel-Layer"/>
  <g id="_1911301302576">
   <g id="_2202497483632">
    <path class="fil0" d="M488.83 13.82l13.42 -1.15 -0.13 154.89c-5.11,-1.98 -9.69,-2.18 -13.49,0.17l0.2 -153.91z"/>
    <path class="fil0" d="M447.29 331.24c42.79,40.11 96.47,8.4 100.52,-2.11l-25.06 0.11c-4.51,0.22 -7.5,0.04 -12.27,0.26 -14.85,0.64 -36.66,-0.06 -50.83,0.64 -4.59,0.24 -10.62,-0.35 -12.36,1.1z"/>
    <path class="fil0" d="M505.53 395.35c-8.63,-1.25 -6.45,7.46 -6.56,21.69 -0.15,17.01 -2.51,23.43 6.49,21.96 3.04,-4.58 1.78,-15.07 1.85,-21.89 0.04,-7.33 1.27,-17.87 -1.78,-21.76z"/>
    <path class="fil0" d="M563.74 405.4c1.21,2.16 10.08,22.89 14.72,13.27 1.67,-3.43 -7.97,-18 -10.08,-21.74 -7.81,-13.92 -8.23,-17.99 -15.05,-14.25 -0.86,4.9 2.16,8.51 4.38,12.23 2.07,3.5 4.14,7.04 6.03,10.49z"/>
    <path class="fil0" d="M631.63 363.91c-0.64,-3.1 -16.72,-11.31 -20.06,-13.35 -2.95,-1.81 -13.07,-9.02 -16.39,-7.9 -1.67,0.55 -3.19,2.35 -2.73,4.99 0.44,2.4 15.84,10.5 20.02,12.98 3.04,1.81 21.54,14.77 19.16,3.28z"/>
    <path class="fil0" d="M452.97 387.47c2.97,-5.5 -2.27,-9.81 -6.27,-5.72l-18.26 30.8c-3.26,6.23 2.9,9.18 6.24,5.55l12.48 -20.79c2.04,-3.21 4.11,-6.76 5.81,-9.84z"/>
    <path class="fil0" d="M412.46 340.99c-3.83,-0.18 -35.57,17.69 -36.47,20.04 -0.99,2.6 0.19,4.93 2.44,5.48 3.06,0.77 18.13,-8.69 21.69,-10.65 14.45,-7.99 18.46,-8.84 12.34,-14.87z"/>
    <path class="fil0" d="M457.39 223.42c18.94,-2.36 16.06,-3.68 38.43,-3.96 14.39,-0.18 24.6,1.65 38.17,2.86 -0.13,-16.55 -0.33,-24.91 -8.91,-35.8 -5.36,-6.84 -16.54,-13.88 -29.92,-13.73 -13.51,0.18 -23.63,6.89 -29.65,14.43 -7.9,9.86 -8.47,20.29 -8.12,36.2z"/>
    <path class="fil0" d="M460.36 227.82c-1.21,3.49 -5.66,3.32 -15.14,11.13 -9.66,7.96 -18.02,17.4 -25.19,28.01 -9.59,14.21 -23.45,44.7 -24.6,58.38 6.85,1.21 18.18,-0.33 25.86,-0.08 4.33,0.15 8.49,-0.31 12.84,-0.16l153.57 -2.66c4,0.15 8.07,-0.09 11.92,-0.42 -10.07,-34.87 -27.5,-71.19 -68.24,-94.29 -0.22,-0.27 -0.4,-0.68 -0.53,-1.17 -26.16,-2.9 -44.4,-2.84 -70.49,1.26z"/>
    <path class="fil0" d="M680.23 413.37c-11.55,7.46 -21.93,23.12 -22.48,36.32l220.91 0c0.04,-9.15 -7.44,-22.86 -13.67,-28.91 -16.98,-16.52 -27.04,-12.87 -56.74,-12.87 -22.88,0 -112.86,-4.35 -128.02,5.46z"/>
    <path class="fil0" d="M875.27 312.52c3.41,12.03 8.89,15.95 20.11,10.98 11,-4.89 12.84,-12.17 5.12,-22.44l-25.23 11.46z"/>
    <path class="fil0" d="M811.88 107.01c-42.79,-40.11 -96.47,-8.4 -100.54,2.11l25.08 -0.11c4.51,-0.22 7.5,-0.04 12.26,-0.26 14.87,-0.64 36.67,0.06 50.84,-0.66 4.58,-0.22 10.63,0.37 12.36,-1.08z"/>
    <path class="fil0" d="M753.63 42.88c8.64,1.28 6.46,-7.44 6.57,-21.67 0.16,-17.01 2.49,-23.43 -6.49,-21.98 -3.03,4.6 -1.78,15.09 -1.84,21.91 -0.05,7.33 -1.28,17.85 1.76,21.74z"/>
    <path class="fil0" d="M695.41 32.85c-1.19,-2.16 -10.07,-22.88 -14.69,-13.27 -1.68,3.43 7.96,18 10.07,21.74 7.81,13.92 8.23,17.99 15.05,14.25 0.86,-4.92 -2.18,-8.51 -4.38,-12.23 -2.07,-3.5 -4.13,-7.06 -6.05,-10.49z"/>
    <path class="fil0" d="M627.54 74.34c0.64,3.1 16.72,11.31 20.04,13.35 2.97,1.81 13.09,9 16.42,7.9 1.67,-0.55 3.19,-2.35 2.72,-4.99 -0.44,-2.4 -15.84,-10.5 -20.02,-12.98 -3.03,-1.81 -21.56,-14.76 -19.16,-3.28z"/>
    <path class="fil0" d="M806.21 50.78c-2.97,5.48 2.26,9.81 6.27,5.7l18.26 -30.78c3.23,-6.23 -2.91,-9.18 -6.25,-5.55l-12.47 20.77c-2.05,3.24 -4.12,6.76 -5.81,9.86z"/>
    <path class="fil0" d="M846.69 97.26c3.85,0.18 35.6,-17.71 36.5,-20.04 0.99,-2.59 -0.2,-4.93 -2.44,-5.5 -3.06,-0.75 -18.13,8.69 -21.7,10.67 -14.45,7.97 -18.48,8.82 -12.36,14.87z"/>
    <path class="fil0" d="M801.76 214.81c-18.92,2.38 -16.06,3.7 -38.41,3.99 -14.39,0.17 -24.6,-1.65 -38.17,-2.86 0.13,16.54 0.33,24.9 8.89,35.79 5.39,6.84 16.56,13.88 29.92,13.73 13.51,-0.18 23.65,-6.89 29.68,-14.43 7.9,-9.86 8.47,-20.29 8.09,-36.22z"/>
    <path class="fil0" d="M798.82 210.44c1.21,-3.5 5.65,-3.33 15.11,-11.14 9.68,-7.96 18.04,-17.4 25.19,-28.03 9.59,-14.21 23.47,-44.68 24.6,-58.36 -6.82,-1.24 -18.15,0.33 -25.83,0.09 -4.34,-0.16 -8.49,0.3 -12.85,0.15l-153.56 2.66c-4.01,-0.15 -8.08,0.09 -11.93,0.42 10.06,34.87 27.5,71.19 68.23,94.27 0.24,0.29 0.41,0.71 0.55,1.19 26.15,2.88 44.39,2.84 70.49,-1.25z"/>
    <path class="fil0" d="M770.3 425.14l-13.42 1.14 0.11 -154.88c5.11,1.98 9.68,2.18 13.49,-0.18l-0.18 153.92z"/>
    <polygon class="fil0" points="832.08,173.52 824.97,176.71 826.1,179.61 879.82,298.15 888.27,316.9 895.57,313.82 "/>
    <path class="fil0" d="M23.38 234.59c14.08,-4.71 22.09,18.59 6.16,23.12 -14.1,3.99 -22.83,-17.51 -6.16,-23.12zm-19.73 0.99c-1.17,1.15 -0.29,-0.28 -1.37,1.94 -0.26,0.55 -0.68,2.09 -0.74,2.29 -0.58,2.35 -0.69,3.96 -0.82,6.35 -0.06,16.37 13.51,28.54 33.33,24.95l33.58 33.29c11.02,11.29 22.17,21.69 33.17,33.07l33.11 33.13c4.25,4.09 31.57,30.71 32.67,33.42 -16.89,0.02 -41.58,-2.51 -53.88,5.45 -11.55,7.46 -21.95,23.13 -22.48,36.33l220.91 0c0.02,-9.15 -7.46,-22.86 -13.69,-28.91 -16.98,-16.52 -27.03,-12.87 -56.71,-12.87 -7.73,0 -52.04,1.03 -55.16,-0.71 -0.7,-0.39 -6.14,-5.94 -7.15,-6.99l-118.76 -118.67c-4.31,-4.42 -9.99,-8.98 -13.46,-13.84 2.4,-5.26 5.94,-7.68 6.27,-16.55 0.31,-8.64 -2.6,-11.92 -5.44,-17.35 11.16,-12.24 22.97,-22.97 34.02,-34.28l68.55 -68.66c7.11,-7.02 19.32,-19.76 28.05,-28.32 -3.01,-3.72 -5.57,-7.28 -7.59,-10.91 -1.08,1.03 -2.18,2.04 -3.23,3.1l-26.69 26.69c-6.18,5.94 -10.69,11.26 -17.29,17.38 -6.29,5.81 -10.5,10.65 -17.41,17.29l-69.8 69.61c-11.58,-2.11 -10.83,-2.13 -21.28,1.54 -1.21,0.64 -1.14,0.35 -2.64,1.58 -2.07,1.74 -0.92,0.69 -1.89,2.34 -1.21,0.57 -0.88,0.26 -2.18,1.43 -0.99,0.88 -1.23,1.25 -1.89,2.09 -1.56,1.98 -1.85,2.26 -2.11,4.79zm188.24 -134.33c1.36,3.45 -2.1,6.22 -4.14,18.32 -2.09,12.37 -2.2,24.97 -0.64,37.67 2.07,17.03 11.57,49.13 19.69,60.21 5.96,-3.54 13.49,-12.14 19.45,-17 3.39,-2.73 6.23,-5.81 9.61,-8.54l114.21 -102.7c3.12,-2.51 6.03,-5.34 8.73,-8.12 -30.47,-19.73 -67.45,-35.75 -113.34,-26.46 -0.36,-0.07 -0.75,-0.24 -1.17,-0.55 -21.67,14.98 -35.4,26.97 -52.4,47.17z"/>
    <path class="fil0" d="M249.83 187.91c58.59,2.24 78.33,-56.9 74.5,-67.5l-18.86 16.52c-3.25,3.13 -5.63,4.95 -9.08,8.23 -10.78,10.25 -27.72,24 -37.95,33.84 -3.3,3.16 -8.28,6.68 -8.61,8.91z"/>
    <path class="fil0" d="M256.87 401.42c1.87,-12.36 -1.49,-18.19 -13.77,-18.28 -12.01,-0.11 -16.72,5.76 -13.9,18.33l27.67 -0.05z"/>
    <path class="fil0" d="M335.83 198.14c-7.34,4.71 0.03,9.85 9.27,20.68 11.04,12.93 13.46,19.34 19.29,12.34 -0.7,-5.46 -8.53,-12.56 -12.96,-17.73 -4.77,-5.59 -10.73,-14.35 -15.6,-15.29z"/>
    <path class="fil0" d="M386.39 167.56c2.29,0.85 22.6,10.67 19.8,0.37 -1.01,-3.67 -17.82,-8.36 -21.87,-9.81 -15.02,-5.39 -17.99,-8.19 -20.72,-0.88 2.6,4.27 7.24,5.01 11.33,6.36 3.87,1.27 7.74,2.61 11.46,3.96z"/>
    <path class="fil0" d="M410.42 91.72c-2.51,-1.91 -20.02,2.42 -23.87,3.06 -3.44,0.59 -15.8,1.78 -17.58,4.79 -0.9,1.52 -0.86,3.88 1.21,5.55 1.91,1.54 18.85,-2.44 23.65,-3.3 3.47,-0.64 25.94,-2.99 16.59,-10.1z"/>
    <path class="fil0" d="M290.98 226.67c-1.37,-6.11 -8.14,-5.94 -8.47,-0.22l6.38 35.22c1.62,6.83 8.22,5.02 8.36,0.09l-4.21 -23.87c-0.57,-3.76 -1.32,-7.79 -2.06,-11.22z"/>
    <path class="fil0" d="M229.92 218.09c-3.01,2.4 -15.26,36.72 -14.41,39.07 0.95,2.6 3.39,3.59 5.44,2.53 2.81,-1.4 7.98,-18.43 9.39,-22.26 5.7,-15.51 8.16,-18.79 -0.42,-19.34z"/>
    <path class="fil0" d="M186.76 99.88c12.76,-14.19 9.7,-13.33 26.4,-28.2 10.76,-9.57 19.67,-14.85 30.71,-22.84 -10.93,-12.43 -16.59,-18.61 -30.18,-21.21 -8.56,-1.63 -21.61,0.38 -31.6,9.27 -10.09,8.97 -13.33,20.68 -12.93,30.33 0.48,12.61 6.88,20.88 17.6,32.65z"/>
    <path class="fil0" d="M191.89 101.25c1.36,3.45 -2.1,6.22 -4.14,18.32 -2.09,12.37 -2.2,24.97 -0.64,37.67 2.07,17.03 11.57,49.13 19.69,60.21 5.96,-3.54 13.49,-12.14 19.45,-17 3.39,-2.73 6.23,-5.81 9.61,-8.54l114.21 -102.7c3.12,-2.51 6.03,-5.34 8.73,-8.12 -30.47,-19.73 -67.45,-35.75 -113.34,-26.46 -0.36,-0.07 -0.75,-0.24 -1.17,-0.55 -21.67,14.98 -35.4,26.97 -52.4,47.17z"/>
   </g>
  </g>
 </g>
</svg>
